<?xml version="1.0" encoding="UTF-8"?>
<svg xmlns="http://www.w3.org/2000/svg" xmlns:xlink="http://www.w3.org/1999/xlink" viewBox="0 0 40 40" version="1.1" width="40px" height="40px">
<g id="surface1">
<path style=" fill:#DFF0FE;" d="M 1.5 17.5 L 38.5 17.5 L 38.5 22.5 L 1.5 22.5 Z "/>
<path style=" fill:#4788C7;" d="M 38 18 L 38 22 L 2 22 L 2 18 L 38 18 M 39 17 L 1 17 L 1 23 L 39 23 Z "/>
<path style=" fill:#DFF0FE;" d="M 1.5 7.5 L 38.5 7.5 L 38.5 12.5 L 1.5 12.5 Z "/>
<path style=" fill:#4788C7;" d="M 38 8 L 38 12 L 2 12 L 2 8 L 38 8 M 39 7 L 1 7 L 1 13 L 39 13 Z "/>
<path style=" fill:#DFF0FE;" d="M 1.5 27.5 L 38.5 27.5 L 38.5 32.5 L 1.5 32.5 Z "/>
<path style=" fill:#4788C7;" d="M 38 28 L 38 32 L 2 32 L 2 28 L 38 28 M 39 27 L 1 27 L 1 33 L 39 33 Z "/>
</g>
</svg>
